<?xml version="1.0" encoding="utf-8"?>
<!-- Generator: Adobe Illustrator 27.0.1, SVG Export Plug-In . SVG Version: 6.00 Build 0)  -->
<svg version="1.1" id="レイヤー_1" xmlns="http://www.w3.org/2000/svg" xmlns:xlink="http://www.w3.org/1999/xlink" x="0px"
	 y="0px" viewBox="0 0 120 36" style="enable-background:new 0 0 120 36;" xml:space="preserve">
<style type="text/css">
	.st0{fill:#2B3137;}
</style>
<path class="st0" d="M19,28.3V16c0-0.6,0.1-3.2,0.1-5.2H19l-5.9,17.5h-2.8L4.5,10.8H4.4c0,1.9,0.1,4.5,0.1,5.2v12.3H1.8V7.5h4
	L11.7,25h0.1l5.9-17.6h4v20.8L19,28.3L19,28.3z"/>
<path class="st0" d="M36.3,13.1h2.8c-1.8,5-3.5,9.9-5.4,14.9c-2.4,6.1-2.7,6.5-5.9,6.5c-0.4,0-0.7-0.1-1.1-0.2v-2.3
	c0.3,0.1,0.8,0.3,1.5,0.3c1.3,0,1.5-0.4,2.7-3.5l-5.6-15.6h2.9l4,12.3h0.1L36.3,13.1z"/>
<path class="st0" d="M58.3,28.3h-3L49.9,7.5h3l3.9,16.9h0.1l4.7-16.9h3.1l4.7,16.9h0.1l3.9-16.9h3.1l-5.5,20.8h-3L63.2,11h-0.1
	L58.3,28.3z"/>
<path class="st0" d="M84.9,12.7c4.8,0,7,4.1,7,8c0,3.9-2.2,8-7,8s-7-4.1-7-8C77.8,16.8,80,12.7,84.9,12.7z M84.9,26.5
	c3.7,0,4.4-3.8,4.4-5.8c0-2-0.8-5.8-4.4-5.8s-4.4,3.8-4.4,5.8C80.5,22.7,81.2,26.5,84.9,26.5z"/>
<path class="st0" d="M97.7,28.3h-2.5V13.1h2.4v2.5h0.1c1-1.8,2.3-3,4.3-3c0.3,0,0.5,0,0.7,0.1v2.6h-1c-2.4,0-3.9,1.9-3.9,4.1V28.3z"
	/>
<path class="st0" d="M118.2,28.3H115l-4.7-7.6l-2.1,1.9v5.7h-2.5V7.5h2.5v12.1l6.5-6.4h3.2l-5.8,5.6L118.2,28.3z"/>
</svg>
